<svg xmlns="http://www.w3.org/2000/svg" width="1920" height="1080" viewBox="0 0 1920 1080">
  <defs>
    <linearGradient id="sky" x1="0" x2="1" y1="0" y2="1">
      <stop offset="0" stop-color="#101820"/>
      <stop offset="0.48" stop-color="#18232c"/>
      <stop offset="1" stop-color="#0e1216"/>
    </linearGradient>
    <radialGradient id="glow" cx="72%" cy="36%" r="45%">
      <stop offset="0" stop-color="#00a3a3" stop-opacity="0.5"/>
      <stop offset="0.42" stop-color="#00c2ff" stop-opacity="0.13"/>
      <stop offset="1" stop-color="#0e1216" stop-opacity="0"/>
    </radialGradient>
  </defs>
  <rect width="1920" height="1080" fill="url(#sky)"/>
  <rect width="1920" height="1080" fill="url(#glow)"/>
  <g fill="none" stroke="#2a2f35" stroke-width="2" opacity="0.55">
    <path d="M0 760h1920"/>
    <path d="M0 900h1920"/>
    <path d="M220 260h1020"/>
    <path d="M220 260l-140 500"/>
    <path d="M1240 260l260 510"/>
    <path d="M420 260l-80 500"/>
    <path d="M640 260l80 500"/>
    <path d="M860 260l200 500"/>
  </g>
  <g fill="#111820" opacity="0.92">
    <rect x="98" y="735" width="260" height="190"/>
    <rect x="420" y="640" width="220" height="285"/>
    <rect x="700" y="700" width="340" height="225"/>
    <rect x="1130" y="590" width="160" height="335"/>
    <rect x="1365" y="680" width="370" height="245"/>
  </g>
  <g fill="#25313b" opacity="0.9">
    <rect x="140" y="780" width="50" height="145"/>
    <rect x="230" y="780" width="50" height="145"/>
    <rect x="470" y="705" width="38" height="220"/>
    <rect x="550" y="705" width="38" height="220"/>
    <rect x="1190" y="648" width="36" height="277"/>
    <rect x="1430" y="735" width="54" height="190"/>
    <rect x="1550" y="735" width="54" height="190"/>
    <rect x="1670" y="735" width="54" height="190"/>
  </g>
  <g fill="#00a3a3" opacity="0.8">
    <rect x="140" y="760" width="520" height="8"/>
    <rect x="780" y="680" width="240" height="8"/>
    <rect x="1330" y="650" width="360" height="8"/>
  </g>
  <g stroke="#00c2ff" stroke-width="3" opacity="0.35">
    <path d="M0 1010c360-120 620-120 980-5s630 100 940-40"/>
    <path d="M0 990c360-120 620-120 980-5s630 100 940-40"/>
  </g>
</svg>
